<svg width="120" height="243" viewBox="0 0 120 243" fill="none" xmlns="http://www.w3.org/2000/svg">
<path d="M78.583 111.653C80.2375 111.737 81.8819 111.96 83.498 112.32L84.1895 112.483L96.0908 115.436C100.208 116.457 104.053 118.353 107.366 120.991L108.021 121.529L110.438 123.57C112.998 125.732 115.06 128.417 116.488 131.441L116.766 132.051C117.491 133.709 118.022 135.446 118.346 137.226L118.472 137.991L119.182 142.79C119.393 144.22 119.5 145.664 119.5 147.109V154.674C119.5 156.102 119.396 157.528 119.189 158.94L119.095 159.545L114.508 186.941L107.206 218.096C104.468 229.777 94.9371 238.617 83.126 240.497L82.5615 240.581L81.4492 240.736L60 241.733L38.5498 240.736L37.4385 240.581C25.556 238.923 15.881 230.24 12.9287 218.65L12.7939 218.096L5.49121 186.941L0.905273 159.545C0.635807 157.935 0.5 156.306 0.5 154.674V149.249C0.5 146.591 0.859224 143.945 1.56738 141.385L1.71387 140.874L2.72852 137.445C3.15818 135.994 3.69902 134.578 4.3457 133.21L4.62988 132.626L5.31543 131.255C6.61728 128.651 8.29685 126.255 10.2988 124.145L10.7041 123.727L11.4863 122.934C15.1443 119.227 19.7162 116.557 24.7354 115.19L25.2227 115.062L35.1855 112.531C36.8662 112.104 38.5811 111.827 40.3096 111.701L41.0508 111.657L60.498 110.734L78.583 111.653Z" fill="white" stroke="black"/>
<ellipse cx="60" cy="126.734" rx="25" ry="4.5" fill="black"/>
<path d="M59.1221 142.555C59.1221 121.626 58.3325 100.535 59.6949 79.6449C60.6456 65.0682 63.3398 50.7696 67.3504 36.7327C68.657 32.1596 69.7905 27.5969 72.2457 23.5049" stroke="white" stroke-width="3" stroke-linecap="round"/>
<path fill-rule="evenodd" clip-rule="evenodd" d="M78.7452 37.5902C79.4684 38.4578 80.758 38.5749 81.6256 37.8516L83.1966 36.5421C84.0642 35.8189 84.1812 34.5293 83.458 33.6617L76.7291 25.5893L69.6435 21.8802L71.9637 29.4548L78.7452 37.5902Z" fill="#99BBD3"/>
<path fill-rule="evenodd" clip-rule="evenodd" d="M87.2601 26.6413C88.385 26.7434 89.3796 25.9143 89.4817 24.7894L89.6666 22.7526C89.7687 21.6277 88.9396 20.6331 87.8147 20.531L77.3486 19.581L69.7156 21.9685L76.7123 25.6839L87.2601 26.6413Z" fill="#99BBD3"/>
<path fill-rule="evenodd" clip-rule="evenodd" d="M51.6169 23.4056C50.492 23.3035 49.6628 22.3088 49.7649 21.1839L49.9498 19.1472C50.0519 18.0223 51.0466 17.1932 52.1715 17.2953L62.6376 18.2452L69.7159 21.968L62.1646 24.3629L51.6169 23.4056Z" fill="#99BBD3"/>
<path fill-rule="evenodd" clip-rule="evenodd" d="M56.0029 10.3082C55.2796 9.44064 55.3967 8.15103 56.2643 7.42781L57.8352 6.11832C58.7028 5.3951 59.9925 5.51215 60.7157 6.37976L67.4446 14.4522L69.8173 22.0897L62.7843 18.4436L56.0029 10.3082Z" fill="#99BBD3"/>
<path fill-rule="evenodd" clip-rule="evenodd" d="M58.0534 35.713C57.1858 36.4362 55.8961 36.3191 55.1729 35.4515L53.8634 33.8806C53.1402 33.013 53.2573 31.7234 54.1249 31.0002L62.1973 24.2712L69.8348 21.8985L66.1887 28.9315L58.0534 35.713Z" fill="#99BBD3"/>
<path fill-rule="evenodd" clip-rule="evenodd" d="M85.3353 12.9706C86.2029 12.2474 86.32 10.9578 85.5968 10.0902L84.2873 8.51926C83.564 7.65165 82.2744 7.5346 81.4068 8.25781L73.3344 14.9868L69.6254 22.0723L77.1999 19.7521L85.3353 12.9706Z" fill="#99BBD3"/>
<path fill-rule="evenodd" clip-rule="evenodd" d="M65.0442 39.513C64.9421 40.6379 65.7713 41.6326 66.8961 41.7347L68.9329 41.9195C70.0578 42.0216 71.0525 41.1925 71.1546 40.0676L72.1045 29.6015L69.717 21.9686L66.0016 28.9652L65.0442 39.513Z" fill="#99BBD3"/>
<path fill-rule="evenodd" clip-rule="evenodd" d="M68.278 3.86881C68.3801 2.74392 69.3748 1.9148 70.4997 2.0169L72.5364 2.20177C73.6613 2.30387 74.4904 3.29853 74.3883 4.42341L73.4384 14.8896L69.7156 21.9679L67.3206 14.4166L68.278 3.86881Z" fill="#99BBD3"/>
<g filter="url(#filter0_d_3591_4538)">
<circle cx="63.1176" cy="23.2331" r="4.52784" transform="rotate(5.18627 63.1176 23.2331)" fill="#FFFAF9"/>
</g>
<g filter="url(#filter1_d_3591_4538)">
<circle cx="74.8344" cy="24.8795" r="4.52784" transform="rotate(5.18627 74.8344 24.8795)" fill="#FFFAF9"/>
</g>
<circle cx="62.9911" cy="24.3639" r="3.05085" transform="rotate(5.18627 62.9911 24.3639)" fill="#282828"/>
<circle cx="74.7235" cy="25.818" r="3.05085" transform="rotate(5.18627 74.7235 25.818)" fill="#282828"/>
<defs>
<filter id="filter0_d_3591_4538" x="58.3961" y="18.7051" width="9.44405" height="9.44307" filterUnits="userSpaceOnUse" color-interpolation-filters="sRGB">
<feFlood flood-opacity="0" result="BackgroundImageFix"/>
<feColorMatrix in="SourceAlpha" type="matrix" values="0 0 0 0 0 0 0 0 0 0 0 0 0 0 0 0 0 0 127 0" result="hardAlpha"/>
<feOffset dy="0.193705"/>
<feGaussianBlur stdDeviation="0.0968523"/>
<feComposite in2="hardAlpha" operator="out"/>
<feColorMatrix type="matrix" values="0 0 0 0 0 0 0 0 0 0 0 0 0 0 0 0 0 0 0.25 0"/>
<feBlend mode="normal" in2="BackgroundImageFix" result="effect1_dropShadow_3591_4538"/>
<feBlend mode="normal" in="SourceGraphic" in2="effect1_dropShadow_3591_4538" result="shape"/>
</filter>
<filter id="filter1_d_3591_4538" x="70.1129" y="20.3516" width="9.44405" height="9.44307" filterUnits="userSpaceOnUse" color-interpolation-filters="sRGB">
<feFlood flood-opacity="0" result="BackgroundImageFix"/>
<feColorMatrix in="SourceAlpha" type="matrix" values="0 0 0 0 0 0 0 0 0 0 0 0 0 0 0 0 0 0 127 0" result="hardAlpha"/>
<feOffset dy="0.193705"/>
<feGaussianBlur stdDeviation="0.0968523"/>
<feComposite in2="hardAlpha" operator="out"/>
<feColorMatrix type="matrix" values="0 0 0 0 0 0 0 0 0 0 0 0 0 0 0 0 0 0 0.25 0"/>
<feBlend mode="normal" in2="BackgroundImageFix" result="effect1_dropShadow_3591_4538"/>
<feBlend mode="normal" in="SourceGraphic" in2="effect1_dropShadow_3591_4538" result="shape"/>
</filter>
</defs>
</svg>
