<svg width="413" height="497" viewBox="0 0 413 497" fill="none" xmlns="http://www.w3.org/2000/svg">
<path fill-rule="evenodd" clip-rule="evenodd" d="M313.833 358.804C322.08 367.051 335.45 367.051 343.696 358.804L358.627 343.873C366.874 335.627 366.874 322.257 358.627 314.01L281.901 237.284L205.581 205.758L236.509 281.48L313.833 358.804Z" fill="#282828"/>
<path fill-rule="evenodd" clip-rule="evenodd" d="M391.178 238.262C402.84 238.262 412.294 228.808 412.294 217.146V196.03C412.294 184.368 402.84 174.914 391.178 174.914H282.671L206.412 206.588L281.824 238.262H391.178Z" fill="#282828"/>
<path fill-rule="evenodd" clip-rule="evenodd" d="M21.6454 238.262C9.98329 238.262 0.529297 228.808 0.529297 217.146L0.529297 196.03C0.529297 184.368 9.98329 174.914 21.6454 174.914H130.153L206.412 206.588L130.999 238.262H21.6454Z" fill="#282828"/>
<path fill-rule="evenodd" clip-rule="evenodd" d="M54.5251 99.4961C46.2787 91.2497 46.2787 77.8798 54.5251 69.6334L69.4565 54.702C77.7029 46.4556 91.0728 46.4556 99.3192 54.702L176.045 131.428L207.572 207.749L131.85 176.821L54.5251 99.4961Z" fill="#282828"/>
<path fill-rule="evenodd" clip-rule="evenodd" d="M99.3191 358.804C91.0727 367.051 77.7027 367.051 69.4563 358.804L54.525 343.873C46.2786 335.627 46.2786 322.257 54.525 314.01L131.251 237.284L207.571 205.758L176.644 281.48L99.3191 358.804Z" fill="#282828"/>
<path fill-rule="evenodd" clip-rule="evenodd" d="M358.627 99.4961C366.874 91.2497 366.874 77.8798 358.627 69.6334L343.696 54.702C335.449 46.4556 322.08 46.4556 313.833 54.702L237.107 131.428L205.581 207.749L281.303 176.821L358.627 99.4961Z" fill="#282828"/>
<path fill-rule="evenodd" clip-rule="evenodd" d="M174.737 391.354C174.737 403.017 184.191 412.471 195.853 412.471H216.97C228.632 412.471 238.086 403.017 238.086 391.354V282.847L206.412 206.588L174.737 282.001V391.354Z" fill="#282828"/>
<path fill-rule="evenodd" clip-rule="evenodd" d="M174.737 21.822C174.737 10.1599 184.191 0.705887 195.853 0.705887H216.97C228.632 0.705887 238.086 10.1599 238.086 21.822V130.329L206.412 206.588L174.737 131.176V21.822Z" fill="#282828"/>
<g filter="url(#filter0_d_2587_235)">
<circle cx="139.75" cy="225.75" r="46.75" fill="#FFFAF9"/>
</g>
<g filter="url(#filter1_d_2587_235)">
<circle cx="261.75" cy="231.75" r="46.75" fill="#FFFAF9"/>
</g>
<circle cx="134.5" cy="226.5" r="31.5" fill="#282828"/>
<circle cx="253.5" cy="230.5" r="31.5" fill="#282828"/>
<path d="M156.792 479V478.856C158.184 477.32 160.344 474.056 162.504 470.552L175.56 449.336C176.808 447.32 176.712 445.208 176.568 444.584L176.616 444.44H182.472L184.968 471.848C185.256 474.824 185.592 477.032 186.264 478.856L186.216 479H178.488L178.536 478.856C179.064 477.656 180.168 474.728 179.88 471.8L179.496 467.144H166.776L164.856 470.408C162.696 473.912 162.504 477.464 162.456 478.808L162.408 479H156.792ZM167.976 465.32H179.304L177.864 449.144L167.976 465.32ZM198.29 479.576C195.218 479.576 192.002 478.664 189.457 477.08L191.186 471.752H191.378C192.626 474.536 195.122 477.704 198.482 477.8C200.306 477.848 202.082 477.08 202.802 475.208C203.762 472.52 201.41 470.552 198.482 468.584C195.554 466.568 192.242 464.024 193.538 460.088C194.594 456.632 197.906 454.904 202.322 454.808C205.154 454.712 207.89 455.48 210.146 456.536L208.61 461.672L208.466 461.72C207.266 458.792 204.77 456.392 201.698 456.488C199.826 456.536 198.194 457.352 197.714 459.032C196.946 461.48 199.634 463.112 202.273 464.936C206.258 467.768 208.13 470.456 207.026 473.912C205.874 477.656 202.514 479.528 198.29 479.576ZM216.088 479.384C212.824 479.384 211.576 476.264 212.68 472.328L216.808 456.92H213.496L213.88 455.48C218.152 454.136 221.176 451.256 223.48 448.088L224.056 448.04L222.136 455.096H228.472L227.992 456.92H221.656L217.624 471.896C216.712 475.16 217.528 475.832 218.488 475.832C219.976 475.784 222.424 474.152 224.872 470.024L225.256 470.36C223.24 475.16 219.832 479.384 216.088 479.384ZM251.829 470.408L252.165 470.744C250.197 475.544 246.885 479.384 243.717 479.384C241.461 479.384 240.309 477.656 241.221 474.152L241.653 472.616C238.629 477.32 235.221 479.384 232.581 479.384C228.213 479.384 225.957 474.248 228.981 466.04C232.149 457.4 237.573 454.808 241.173 454.808C243.717 454.808 245.493 456.056 246.069 457.928C247.701 457.064 249.333 456.056 250.341 455.096H251.205L245.973 474.344C245.205 477.224 248.853 475.016 251.829 470.408ZM235.125 476.168C237.861 476.168 241.461 472.136 243.525 465.656L245.061 460.136C245.061 458.552 244.341 456.872 242.373 456.776C239.397 456.728 236.037 460.664 234.165 465.896C231.957 471.848 232.245 476.168 235.125 476.168Z" fill="black"/>
<defs>
<filter id="filter0_d_2587_235" x="91" y="179" width="97.5" height="97.5" filterUnits="userSpaceOnUse" color-interpolation-filters="sRGB">
<feFlood flood-opacity="0" result="BackgroundImageFix"/>
<feColorMatrix in="SourceAlpha" type="matrix" values="0 0 0 0 0 0 0 0 0 0 0 0 0 0 0 0 0 0 127 0" result="hardAlpha"/>
<feOffset dy="2"/>
<feGaussianBlur stdDeviation="1"/>
<feComposite in2="hardAlpha" operator="out"/>
<feColorMatrix type="matrix" values="0 0 0 0 0 0 0 0 0 0 0 0 0 0 0 0 0 0 0.25 0"/>
<feBlend mode="normal" in2="BackgroundImageFix" result="effect1_dropShadow_2587_235"/>
<feBlend mode="normal" in="SourceGraphic" in2="effect1_dropShadow_2587_235" result="shape"/>
</filter>
<filter id="filter1_d_2587_235" x="213" y="185" width="97.5" height="97.5" filterUnits="userSpaceOnUse" color-interpolation-filters="sRGB">
<feFlood flood-opacity="0" result="BackgroundImageFix"/>
<feColorMatrix in="SourceAlpha" type="matrix" values="0 0 0 0 0 0 0 0 0 0 0 0 0 0 0 0 0 0 127 0" result="hardAlpha"/>
<feOffset dy="2"/>
<feGaussianBlur stdDeviation="1"/>
<feComposite in2="hardAlpha" operator="out"/>
<feColorMatrix type="matrix" values="0 0 0 0 0 0 0 0 0 0 0 0 0 0 0 0 0 0 0.25 0"/>
<feBlend mode="normal" in2="BackgroundImageFix" result="effect1_dropShadow_2587_235"/>
<feBlend mode="normal" in="SourceGraphic" in2="effect1_dropShadow_2587_235" result="shape"/>
</filter>
</defs>
</svg>
