<svg width="413" height="497" viewBox="0 0 413 497" fill="none" xmlns="http://www.w3.org/2000/svg">
<path fill-rule="evenodd" clip-rule="evenodd" d="M313.833 358.804C322.08 367.051 335.45 367.051 343.696 358.804L358.627 343.873C366.874 335.627 366.874 322.257 358.627 314.01L281.901 237.284L205.581 205.758L236.509 281.48L313.833 358.804Z" fill="#DF6431"/>
<path fill-rule="evenodd" clip-rule="evenodd" d="M391.178 238.262C402.84 238.262 412.294 228.808 412.294 217.146V196.03C412.294 184.368 402.84 174.914 391.178 174.914H282.671L206.412 206.588L281.824 238.262H391.178Z" fill="#DF6431"/>
<path fill-rule="evenodd" clip-rule="evenodd" d="M21.6454 238.262C9.98329 238.262 0.529297 228.808 0.529297 217.146L0.529297 196.03C0.529297 184.368 9.98329 174.914 21.6454 174.914H130.153L206.412 206.588L130.999 238.262H21.6454Z" fill="#DF6431"/>
<path fill-rule="evenodd" clip-rule="evenodd" d="M54.5251 99.4961C46.2787 91.2497 46.2787 77.8798 54.5251 69.6334L69.4565 54.702C77.7029 46.4556 91.0728 46.4556 99.3192 54.702L176.045 131.428L207.572 207.749L131.85 176.821L54.5251 99.4961Z" fill="#DF6431"/>
<path fill-rule="evenodd" clip-rule="evenodd" d="M99.3191 358.804C91.0727 367.051 77.7027 367.051 69.4563 358.804L54.525 343.873C46.2786 335.627 46.2786 322.257 54.525 314.01L131.251 237.284L207.571 205.758L176.644 281.48L99.3191 358.804Z" fill="#DF6431"/>
<path fill-rule="evenodd" clip-rule="evenodd" d="M358.627 99.4961C366.874 91.2497 366.874 77.8798 358.627 69.6334L343.696 54.702C335.449 46.4556 322.08 46.4556 313.833 54.702L237.107 131.428L205.581 207.749L281.303 176.821L358.627 99.4961Z" fill="#DF6431"/>
<path fill-rule="evenodd" clip-rule="evenodd" d="M174.737 391.354C174.737 403.017 184.191 412.471 195.853 412.471H216.97C228.632 412.471 238.086 403.017 238.086 391.354V282.847L206.412 206.588L174.737 282.001V391.354Z" fill="#DF6431"/>
<path fill-rule="evenodd" clip-rule="evenodd" d="M174.737 21.822C174.737 10.1599 184.191 0.705887 195.853 0.705887H216.97C228.632 0.705887 238.086 10.1599 238.086 21.822V130.329L206.412 206.588L174.737 131.176V21.822Z" fill="#DF6431"/>
<g filter="url(#filter0_d_2587_251)">
<circle cx="139.75" cy="225.75" r="46.75" fill="#FFFAF9"/>
</g>
<g filter="url(#filter1_d_2587_251)">
<circle cx="261.75" cy="231.75" r="46.75" fill="#FFFAF9"/>
</g>
<circle cx="139.5" cy="216.5" r="31.5" fill="#282828"/>
<circle cx="261.5" cy="221.5" r="31.5" fill="#282828"/>
<path d="M142.792 479V478.856C144.184 477.32 146.344 474.056 148.504 470.552L161.56 449.336C162.808 447.32 162.712 445.208 162.568 444.584L162.616 444.44H168.472L170.968 471.848C171.256 474.824 171.592 477.032 172.264 478.856L172.216 479H164.488L164.536 478.856C165.064 477.656 166.168 474.728 165.88 471.8L165.496 467.144H152.776L150.856 470.408C148.696 473.912 148.504 477.464 148.456 478.808L148.408 479H142.792ZM153.976 465.32H165.304L163.864 449.144L153.976 465.32ZM184.29 479.576C181.218 479.576 178.002 478.664 175.457 477.08L177.186 471.752H177.378C178.626 474.536 181.122 477.704 184.482 477.8C186.306 477.848 188.082 477.08 188.802 475.208C189.762 472.52 187.41 470.552 184.482 468.584C181.554 466.568 178.242 464.024 179.538 460.088C180.594 456.632 183.906 454.904 188.322 454.808C191.154 454.712 193.89 455.48 196.146 456.536L194.61 461.672L194.466 461.72C193.266 458.792 190.77 456.392 187.698 456.488C185.826 456.536 184.194 457.352 183.714 459.032C182.946 461.48 185.634 463.112 188.273 464.936C192.258 467.768 194.13 470.456 193.026 473.912C191.874 477.656 188.514 479.528 184.29 479.576ZM202.088 479.384C198.824 479.384 197.576 476.264 198.68 472.328L202.808 456.92H199.496L199.88 455.48C204.152 454.136 207.176 451.256 209.48 448.088L210.056 448.04L208.136 455.096H214.472L213.992 456.92H207.656L203.624 471.896C202.712 475.16 203.528 475.832 204.488 475.832C205.976 475.784 208.424 474.152 210.872 470.024L211.256 470.36C209.24 475.16 205.832 479.384 202.088 479.384ZM234.805 460.616C233.893 464.504 228.661 468.152 219.349 467.528C218.389 472.616 220.069 476.072 223.813 476.072C226.453 476.072 230.485 474.44 233.365 469.64L233.845 470.024C231.157 475.88 226.165 479.384 221.701 479.384C216.373 479.384 212.437 474.392 214.837 466.184C216.901 458.936 222.709 454.808 228.133 454.808C232.309 454.808 235.621 457.016 234.805 460.616ZM227.941 456.44C224.341 456.44 221.125 461.432 219.829 465.704L219.637 466.328C226.645 466.136 229.573 463.4 230.341 460.664C231.013 458.36 230.005 456.44 227.941 456.44ZM243.776 463.304C246.32 458.072 250.448 453.176 255.104 455.384L253.184 460.664H253.04C252.272 459.8 251.312 459.368 250.304 459.416C247.28 459.512 243.872 464.168 241.856 470.696L239.744 479H234.848L239.408 462.056C240.176 459.176 240.176 456.296 240.224 455.24L240.272 455.096H245.888L243.776 463.304ZM257.35 479.144C254.998 479.144 253.798 477.32 254.854 473.432L258.022 461.96C258.79 459.08 258.742 456.68 258.646 455.24L258.694 455.096H264.646L259.654 473.48C258.502 477.752 262.342 474.824 265.318 470.216L265.654 470.552C263.686 475.304 260.47 479.144 257.35 479.144Z" fill="black"/>
<defs>
<filter id="filter0_d_2587_251" x="91" y="179" width="97.5" height="97.5" filterUnits="userSpaceOnUse" color-interpolation-filters="sRGB">
<feFlood flood-opacity="0" result="BackgroundImageFix"/>
<feColorMatrix in="SourceAlpha" type="matrix" values="0 0 0 0 0 0 0 0 0 0 0 0 0 0 0 0 0 0 127 0" result="hardAlpha"/>
<feOffset dy="2"/>
<feGaussianBlur stdDeviation="1"/>
<feComposite in2="hardAlpha" operator="out"/>
<feColorMatrix type="matrix" values="0 0 0 0 0 0 0 0 0 0 0 0 0 0 0 0 0 0 0.25 0"/>
<feBlend mode="normal" in2="BackgroundImageFix" result="effect1_dropShadow_2587_251"/>
<feBlend mode="normal" in="SourceGraphic" in2="effect1_dropShadow_2587_251" result="shape"/>
</filter>
<filter id="filter1_d_2587_251" x="213" y="185" width="97.5" height="97.5" filterUnits="userSpaceOnUse" color-interpolation-filters="sRGB">
<feFlood flood-opacity="0" result="BackgroundImageFix"/>
<feColorMatrix in="SourceAlpha" type="matrix" values="0 0 0 0 0 0 0 0 0 0 0 0 0 0 0 0 0 0 127 0" result="hardAlpha"/>
<feOffset dy="2"/>
<feGaussianBlur stdDeviation="1"/>
<feComposite in2="hardAlpha" operator="out"/>
<feColorMatrix type="matrix" values="0 0 0 0 0 0 0 0 0 0 0 0 0 0 0 0 0 0 0.25 0"/>
<feBlend mode="normal" in2="BackgroundImageFix" result="effect1_dropShadow_2587_251"/>
<feBlend mode="normal" in="SourceGraphic" in2="effect1_dropShadow_2587_251" result="shape"/>
</filter>
</defs>
</svg>
