<svg width="413" height="497" viewBox="0 0 413 497" fill="none" xmlns="http://www.w3.org/2000/svg">
<path fill-rule="evenodd" clip-rule="evenodd" d="M313.833 358.804C322.08 367.051 335.45 367.051 343.696 358.804L358.627 343.873C366.874 335.627 366.874 322.257 358.627 314.01L281.901 237.284L205.581 205.758L236.509 281.48L313.833 358.804Z" fill="#149334"/>
<path fill-rule="evenodd" clip-rule="evenodd" d="M391.178 238.262C402.84 238.262 412.294 228.808 412.294 217.146V196.03C412.294 184.368 402.84 174.914 391.178 174.914H282.671L206.412 206.588L281.824 238.262H391.178Z" fill="#149334"/>
<path fill-rule="evenodd" clip-rule="evenodd" d="M21.6454 238.262C9.98329 238.262 0.529297 228.808 0.529297 217.146L0.529297 196.03C0.529297 184.368 9.98329 174.914 21.6454 174.914H130.153L206.412 206.588L130.999 238.262H21.6454Z" fill="#149334"/>
<path fill-rule="evenodd" clip-rule="evenodd" d="M54.5251 99.4961C46.2787 91.2497 46.2787 77.8798 54.5251 69.6334L69.4565 54.702C77.7029 46.4556 91.0728 46.4556 99.3192 54.702L176.045 131.428L207.572 207.749L131.85 176.821L54.5251 99.4961Z" fill="#149334"/>
<path fill-rule="evenodd" clip-rule="evenodd" d="M99.3191 358.804C91.0727 367.051 77.7027 367.051 69.4563 358.804L54.525 343.873C46.2786 335.627 46.2786 322.257 54.525 314.01L131.251 237.284L207.571 205.758L176.644 281.48L99.3191 358.804Z" fill="#149334"/>
<path fill-rule="evenodd" clip-rule="evenodd" d="M358.627 99.4961C366.874 91.2497 366.874 77.8798 358.627 69.6334L343.696 54.702C335.449 46.4556 322.08 46.4556 313.833 54.702L237.107 131.428L205.581 207.749L281.303 176.821L358.627 99.4961Z" fill="#149334"/>
<path fill-rule="evenodd" clip-rule="evenodd" d="M174.737 391.354C174.737 403.017 184.191 412.471 195.853 412.471H216.97C228.632 412.471 238.086 403.017 238.086 391.354V282.847L206.412 206.588L174.737 282.001V391.354Z" fill="#149334"/>
<path fill-rule="evenodd" clip-rule="evenodd" d="M174.737 21.822C174.737 10.1599 184.191 0.705887 195.853 0.705887H216.97C228.632 0.705887 238.086 10.1599 238.086 21.822V130.329L206.412 206.588L174.737 131.176V21.822Z" fill="#149334"/>
<g filter="url(#filter0_d_2587_281)">
<circle cx="139.75" cy="225.75" r="46.75" fill="#FFFAF9"/>
</g>
<g filter="url(#filter1_d_2587_281)">
<circle cx="261.75" cy="231.75" r="46.75" fill="#FFFAF9"/>
</g>
<circle cx="143.5" cy="231.5" r="31.5" fill="#282828"/>
<circle cx="269.5" cy="231.5" r="31.5" fill="#282828"/>
<path d="M135.792 479V478.856C137.184 477.32 139.344 474.056 141.504 470.552L154.56 449.336C155.808 447.32 155.712 445.208 155.568 444.584L155.616 444.44H161.472L163.968 471.848C164.256 474.824 164.592 477.032 165.264 478.856L165.216 479H157.488L157.536 478.856C158.064 477.656 159.168 474.728 158.88 471.8L158.496 467.144H145.776L143.856 470.408C141.696 473.912 141.504 477.464 141.456 478.808L141.408 479H135.792ZM146.976 465.32H158.304L156.864 449.144L146.976 465.32ZM177.29 479.576C174.218 479.576 171.002 478.664 168.457 477.08L170.186 471.752H170.378C171.626 474.536 174.122 477.704 177.482 477.8C179.306 477.848 181.082 477.08 181.802 475.208C182.762 472.52 180.41 470.552 177.482 468.584C174.554 466.568 171.242 464.024 172.538 460.088C173.594 456.632 176.906 454.904 181.322 454.808C184.154 454.712 186.89 455.48 189.146 456.536L187.61 461.672L187.466 461.72C186.266 458.792 183.77 456.392 180.698 456.488C178.826 456.536 177.194 457.352 176.714 459.032C175.946 461.48 178.634 463.112 181.273 464.936C185.258 467.768 187.13 470.456 186.026 473.912C184.874 477.656 181.514 479.528 177.29 479.576ZM195.088 479.384C191.824 479.384 190.576 476.264 191.68 472.328L195.808 456.92H192.496L192.88 455.48C197.152 454.136 200.176 451.256 202.48 448.088L203.056 448.04L201.136 455.096H207.472L206.992 456.92H200.656L196.624 471.896C195.712 475.16 196.528 475.832 197.488 475.832C198.976 475.784 201.424 474.152 203.872 470.024L204.256 470.36C202.24 475.16 198.832 479.384 195.088 479.384ZM209.85 479.144C207.498 479.144 206.298 477.32 207.354 473.432L210.522 461.96C211.29 459.08 211.242 456.68 211.146 455.24L211.194 455.096H217.146L212.154 473.48C211.002 477.752 214.842 474.824 217.818 470.216L218.154 470.552C216.186 475.304 212.97 479.144 209.85 479.144ZM246.101 470.408L246.485 470.744C244.469 475.544 241.205 479.384 238.085 479.384C235.781 479.384 234.533 477.608 235.493 474.152L238.421 463.592C239.525 459.56 238.277 458.072 236.501 458.072C232.901 458.072 228.533 464.216 226.277 471.464L224.357 479H219.461L224.069 462.104C224.789 459.224 224.885 456.248 224.741 455.24V455.096H230.501L228.341 463.496C230.837 459.128 234.389 454.808 238.901 454.808C242.213 454.808 244.997 457.112 243.461 462.824L240.245 474.44C239.525 477.08 243.125 475.016 246.101 470.408ZM272.783 470.408L273.119 470.744C271.151 475.544 267.839 479.384 264.671 479.384C262.415 479.384 261.263 477.656 262.174 474.152L262.607 472.616C259.583 477.32 256.175 479.384 253.535 479.384C249.167 479.384 246.91 474.248 249.935 466.04C253.103 457.4 258.527 454.808 262.127 454.808C264.671 454.808 266.447 456.056 267.023 457.928C268.655 457.064 270.287 456.056 271.295 455.096H272.159L266.927 474.344C266.159 477.224 269.807 475.016 272.783 470.408ZM256.079 476.168C258.815 476.168 262.415 472.136 264.479 465.656L266.015 460.136C266.015 458.552 265.295 456.872 263.327 456.776C260.351 456.728 256.991 460.664 255.118 465.896C252.911 471.848 253.199 476.168 256.079 476.168Z" fill="black"/>
<defs>
<filter id="filter0_d_2587_281" x="91" y="179" width="97.5" height="97.5" filterUnits="userSpaceOnUse" color-interpolation-filters="sRGB">
<feFlood flood-opacity="0" result="BackgroundImageFix"/>
<feColorMatrix in="SourceAlpha" type="matrix" values="0 0 0 0 0 0 0 0 0 0 0 0 0 0 0 0 0 0 127 0" result="hardAlpha"/>
<feOffset dy="2"/>
<feGaussianBlur stdDeviation="1"/>
<feComposite in2="hardAlpha" operator="out"/>
<feColorMatrix type="matrix" values="0 0 0 0 0 0 0 0 0 0 0 0 0 0 0 0 0 0 0.25 0"/>
<feBlend mode="normal" in2="BackgroundImageFix" result="effect1_dropShadow_2587_281"/>
<feBlend mode="normal" in="SourceGraphic" in2="effect1_dropShadow_2587_281" result="shape"/>
</filter>
<filter id="filter1_d_2587_281" x="213" y="185" width="97.5" height="97.5" filterUnits="userSpaceOnUse" color-interpolation-filters="sRGB">
<feFlood flood-opacity="0" result="BackgroundImageFix"/>
<feColorMatrix in="SourceAlpha" type="matrix" values="0 0 0 0 0 0 0 0 0 0 0 0 0 0 0 0 0 0 127 0" result="hardAlpha"/>
<feOffset dy="2"/>
<feGaussianBlur stdDeviation="1"/>
<feComposite in2="hardAlpha" operator="out"/>
<feColorMatrix type="matrix" values="0 0 0 0 0 0 0 0 0 0 0 0 0 0 0 0 0 0 0.25 0"/>
<feBlend mode="normal" in2="BackgroundImageFix" result="effect1_dropShadow_2587_281"/>
<feBlend mode="normal" in="SourceGraphic" in2="effect1_dropShadow_2587_281" result="shape"/>
</filter>
</defs>
</svg>
