<svg width="413" height="497" viewBox="0 0 413 497" fill="none" xmlns="http://www.w3.org/2000/svg">
<path fill-rule="evenodd" clip-rule="evenodd" d="M313.833 358.804C322.08 367.051 335.45 367.051 343.696 358.804L358.627 343.873C366.874 335.627 366.874 322.257 358.627 314.01L281.901 237.284L205.581 205.758L236.509 281.48L313.833 358.804Z" fill="#99BBD3"/>
<path fill-rule="evenodd" clip-rule="evenodd" d="M391.178 238.262C402.84 238.262 412.294 228.808 412.294 217.146V196.03C412.294 184.368 402.84 174.914 391.178 174.914H282.671L206.412 206.588L281.824 238.262H391.178Z" fill="#99BBD3"/>
<path fill-rule="evenodd" clip-rule="evenodd" d="M21.6454 238.262C9.98329 238.262 0.529297 228.808 0.529297 217.146L0.529297 196.03C0.529297 184.368 9.98329 174.914 21.6454 174.914H130.153L206.412 206.588L130.999 238.262H21.6454Z" fill="#99BBD3"/>
<path fill-rule="evenodd" clip-rule="evenodd" d="M54.5251 99.4961C46.2787 91.2497 46.2787 77.8798 54.5251 69.6334L69.4565 54.702C77.7029 46.4556 91.0728 46.4556 99.3192 54.702L176.045 131.428L207.572 207.749L131.85 176.821L54.5251 99.4961Z" fill="#99BBD3"/>
<path fill-rule="evenodd" clip-rule="evenodd" d="M99.3191 358.804C91.0727 367.051 77.7027 367.051 69.4563 358.804L54.525 343.873C46.2786 335.627 46.2786 322.257 54.525 314.01L131.251 237.284L207.571 205.758L176.644 281.48L99.3191 358.804Z" fill="#99BBD3"/>
<path fill-rule="evenodd" clip-rule="evenodd" d="M358.627 99.4961C366.874 91.2497 366.874 77.8798 358.627 69.6334L343.696 54.702C335.449 46.4556 322.08 46.4556 313.833 54.702L237.107 131.428L205.581 207.749L281.303 176.821L358.627 99.4961Z" fill="#99BBD3"/>
<path fill-rule="evenodd" clip-rule="evenodd" d="M174.737 391.354C174.737 403.017 184.191 412.471 195.853 412.471H216.97C228.632 412.471 238.086 403.017 238.086 391.354V282.847L206.412 206.588L174.737 282.001V391.354Z" fill="#99BBD3"/>
<path fill-rule="evenodd" clip-rule="evenodd" d="M174.737 21.822C174.737 10.1599 184.191 0.705887 195.853 0.705887H216.97C228.632 0.705887 238.086 10.1599 238.086 21.822V130.329L206.412 206.588L174.737 131.176V21.822Z" fill="#99BBD3"/>
<g filter="url(#filter0_d_2587_266)">
<circle cx="139.75" cy="225.75" r="46.75" fill="#FFFAF9"/>
</g>
<g filter="url(#filter1_d_2587_266)">
<circle cx="261.75" cy="231.75" r="46.75" fill="#FFFAF9"/>
</g>
<circle cx="139.5" cy="237.5" r="31.5" fill="#282828"/>
<circle cx="261.5" cy="241.5" r="31.5" fill="#282828"/>
<path d="M144.292 479V478.856C145.684 477.32 147.844 474.056 150.004 470.552L163.06 449.336C164.308 447.32 164.212 445.208 164.068 444.584L164.116 444.44H169.972L172.468 471.848C172.756 474.824 173.092 477.032 173.764 478.856L173.716 479H165.988L166.036 478.856C166.564 477.656 167.668 474.728 167.38 471.8L166.996 467.144H154.276L152.356 470.408C150.196 473.912 150.004 477.464 149.956 478.808L149.908 479H144.292ZM155.476 465.32H166.804L165.364 449.144L155.476 465.32ZM185.79 479.576C182.718 479.576 179.502 478.664 176.957 477.08L178.686 471.752H178.878C180.126 474.536 182.622 477.704 185.982 477.8C187.806 477.848 189.582 477.08 190.302 475.208C191.262 472.52 188.91 470.552 185.982 468.584C183.054 466.568 179.742 464.024 181.038 460.088C182.094 456.632 185.406 454.904 189.822 454.808C192.654 454.712 195.39 455.48 197.646 456.536L196.11 461.672L195.966 461.72C194.766 458.792 192.27 456.392 189.198 456.488C187.326 456.536 185.694 457.352 185.214 459.032C184.446 461.48 187.134 463.112 189.773 464.936C193.758 467.768 195.63 470.456 194.526 473.912C193.374 477.656 190.014 479.528 185.79 479.576ZM203.588 479.384C200.324 479.384 199.076 476.264 200.18 472.328L204.308 456.92H200.996L201.38 455.48C205.652 454.136 208.676 451.256 210.98 448.088L211.556 448.04L209.636 455.096H215.972L215.492 456.92H209.156L205.124 471.896C204.212 475.16 205.028 475.832 205.988 475.832C207.476 475.784 209.924 474.152 212.372 470.024L212.756 470.36C210.74 475.16 207.332 479.384 203.588 479.384ZM223.345 479.576C217.777 479.48 214.033 474.68 216.145 466.808C218.209 459.08 224.017 454.712 229.681 454.808C235.249 454.904 238.897 459.512 236.833 467.192C234.721 475.064 228.961 479.672 223.345 479.576ZM223.825 477.896C227.281 477.944 230.065 472.664 231.601 467.096C233.137 461.72 232.561 456.536 229.105 456.488C225.601 456.392 222.865 461.528 221.377 466.904C219.841 472.376 220.273 477.8 223.825 477.896ZM264.445 470.408L264.829 470.744C262.813 475.544 259.549 479.384 256.429 479.384C254.125 479.384 252.877 477.608 253.837 474.152L256.765 463.592C257.869 459.56 256.621 458.072 254.845 458.072C251.245 458.072 246.877 464.216 244.621 471.464L242.701 479H237.805L242.413 462.104C243.133 459.224 243.229 456.248 243.085 455.24V455.096H248.845L246.685 463.496C249.181 459.128 252.733 454.808 257.245 454.808C260.557 454.808 263.341 457.112 261.805 462.824L258.589 474.44C257.869 477.08 261.469 475.016 264.445 470.408Z" fill="black"/>
<defs>
<filter id="filter0_d_2587_266" x="91" y="179" width="97.5" height="97.5" filterUnits="userSpaceOnUse" color-interpolation-filters="sRGB">
<feFlood flood-opacity="0" result="BackgroundImageFix"/>
<feColorMatrix in="SourceAlpha" type="matrix" values="0 0 0 0 0 0 0 0 0 0 0 0 0 0 0 0 0 0 127 0" result="hardAlpha"/>
<feOffset dy="2"/>
<feGaussianBlur stdDeviation="1"/>
<feComposite in2="hardAlpha" operator="out"/>
<feColorMatrix type="matrix" values="0 0 0 0 0 0 0 0 0 0 0 0 0 0 0 0 0 0 0.25 0"/>
<feBlend mode="normal" in2="BackgroundImageFix" result="effect1_dropShadow_2587_266"/>
<feBlend mode="normal" in="SourceGraphic" in2="effect1_dropShadow_2587_266" result="shape"/>
</filter>
<filter id="filter1_d_2587_266" x="213" y="185" width="97.5" height="97.5" filterUnits="userSpaceOnUse" color-interpolation-filters="sRGB">
<feFlood flood-opacity="0" result="BackgroundImageFix"/>
<feColorMatrix in="SourceAlpha" type="matrix" values="0 0 0 0 0 0 0 0 0 0 0 0 0 0 0 0 0 0 127 0" result="hardAlpha"/>
<feOffset dy="2"/>
<feGaussianBlur stdDeviation="1"/>
<feComposite in2="hardAlpha" operator="out"/>
<feColorMatrix type="matrix" values="0 0 0 0 0 0 0 0 0 0 0 0 0 0 0 0 0 0 0.25 0"/>
<feBlend mode="normal" in2="BackgroundImageFix" result="effect1_dropShadow_2587_266"/>
<feBlend mode="normal" in="SourceGraphic" in2="effect1_dropShadow_2587_266" result="shape"/>
</filter>
</defs>
</svg>
