<svg width="413" height="497" viewBox="0 0 413 497" fill="none" xmlns="http://www.w3.org/2000/svg">
<path fill-rule="evenodd" clip-rule="evenodd" d="M313.833 358.804C322.08 367.051 335.45 367.051 343.696 358.804L358.627 343.873C366.874 335.627 366.874 322.257 358.627 314.01L281.901 237.284L205.581 205.758L236.509 281.48L313.833 358.804Z" fill="#EEBCBE"/>
<path fill-rule="evenodd" clip-rule="evenodd" d="M391.178 238.262C402.84 238.262 412.294 228.808 412.294 217.146V196.03C412.294 184.368 402.84 174.914 391.178 174.914H282.671L206.412 206.588L281.824 238.262H391.178Z" fill="#EEBCBE"/>
<path fill-rule="evenodd" clip-rule="evenodd" d="M21.6454 238.262C9.98329 238.262 0.529297 228.808 0.529297 217.146L0.529297 196.03C0.529297 184.368 9.98329 174.914 21.6454 174.914H130.153L206.412 206.588L130.999 238.262H21.6454Z" fill="#EEBCBE"/>
<path fill-rule="evenodd" clip-rule="evenodd" d="M54.5251 99.4961C46.2787 91.2497 46.2787 77.8798 54.5251 69.6334L69.4565 54.702C77.7029 46.4556 91.0728 46.4556 99.3192 54.702L176.045 131.428L207.572 207.749L131.85 176.821L54.5251 99.4961Z" fill="#EEBCBE"/>
<path fill-rule="evenodd" clip-rule="evenodd" d="M99.3191 358.804C91.0727 367.051 77.7027 367.051 69.4563 358.804L54.525 343.873C46.2786 335.627 46.2786 322.257 54.525 314.01L131.251 237.284L207.571 205.758L176.644 281.48L99.3191 358.804Z" fill="#EEBCBE"/>
<path fill-rule="evenodd" clip-rule="evenodd" d="M358.627 99.4961C366.874 91.2497 366.874 77.8798 358.627 69.6334L343.696 54.702C335.449 46.4556 322.08 46.4556 313.833 54.702L237.107 131.428L205.581 207.749L281.303 176.821L358.627 99.4961Z" fill="#EEBCBE"/>
<path fill-rule="evenodd" clip-rule="evenodd" d="M174.737 391.354C174.737 403.017 184.191 412.471 195.853 412.471H216.97C228.632 412.471 238.086 403.017 238.086 391.354V282.847L206.412 206.588L174.737 282.001V391.354Z" fill="#EEBCBE"/>
<path fill-rule="evenodd" clip-rule="evenodd" d="M174.737 21.822C174.737 10.1599 184.191 0.705887 195.853 0.705887H216.97C228.632 0.705887 238.086 10.1599 238.086 21.822V130.329L206.412 206.588L174.737 131.176V21.822Z" fill="#EEBCBE"/>
<g filter="url(#filter0_d_2587_296)">
<circle cx="139.75" cy="225.75" r="46.75" fill="#FFFAF9"/>
</g>
<g filter="url(#filter1_d_2587_296)">
<circle cx="261.75" cy="231.75" r="46.75" fill="#FFFAF9"/>
</g>
<circle cx="147.5" cy="225.5" r="31.5" fill="#282828"/>
<circle cx="253.5" cy="225.5" r="31.5" fill="#282828"/>
<path d="M140.792 479V478.856C142.184 477.32 144.344 474.056 146.504 470.552L159.56 449.336C160.808 447.32 160.712 445.208 160.568 444.584L160.616 444.44H166.472L168.968 471.848C169.256 474.824 169.592 477.032 170.264 478.856L170.216 479H162.488L162.536 478.856C163.064 477.656 164.168 474.728 163.88 471.8L163.496 467.144H150.776L148.856 470.408C146.696 473.912 146.504 477.464 146.456 478.808L146.408 479H140.792ZM151.976 465.32H163.304L161.864 449.144L151.976 465.32ZM182.29 479.576C179.218 479.576 176.002 478.664 173.457 477.08L175.186 471.752H175.378C176.626 474.536 179.122 477.704 182.482 477.8C184.306 477.848 186.082 477.08 186.802 475.208C187.762 472.52 185.41 470.552 182.482 468.584C179.554 466.568 176.242 464.024 177.538 460.088C178.594 456.632 181.906 454.904 186.322 454.808C189.154 454.712 191.89 455.48 194.146 456.536L192.61 461.672L192.466 461.72C191.266 458.792 188.77 456.392 185.698 456.488C183.826 456.536 182.194 457.352 181.714 459.032C180.946 461.48 183.634 463.112 186.273 464.936C190.258 467.768 192.13 470.456 191.026 473.912C189.874 477.656 186.514 479.528 182.29 479.576ZM200.088 479.384C196.824 479.384 195.576 476.264 196.68 472.328L200.808 456.92H197.496L197.88 455.48C202.152 454.136 205.176 451.256 207.48 448.088L208.056 448.04L206.136 455.096H212.472L211.992 456.92H205.656L201.624 471.896C200.712 475.16 201.528 475.832 202.488 475.832C203.976 475.784 206.424 474.152 208.872 470.024L209.256 470.36C207.24 475.16 203.832 479.384 200.088 479.384ZM219.417 463.304C221.961 458.072 226.089 453.176 230.745 455.384L228.825 460.664H228.681C227.913 459.8 226.953 459.368 225.945 459.416C222.921 459.512 219.513 464.168 217.497 470.696L215.385 479H210.489L215.049 462.056C215.817 459.176 215.817 456.296 215.865 455.24L215.913 455.096H221.529L219.417 463.304ZM232.991 479.144C230.639 479.144 229.439 477.32 230.495 473.432L233.663 461.96C234.431 459.08 234.383 456.68 234.287 455.24L234.335 455.096H240.287L235.295 473.48C234.143 477.752 237.983 474.824 240.959 470.216L241.295 470.552C239.327 475.304 236.111 479.144 232.991 479.144ZM261.989 474.344C261.221 477.224 264.869 475.016 267.845 470.408L268.181 470.744C266.213 475.544 262.901 479.384 259.733 479.384C257.477 479.384 256.325 477.608 257.237 474.152L257.669 472.52C254.645 477.32 251.285 479.384 248.597 479.384C244.229 479.384 241.973 474.248 244.997 466.04C248.165 457.4 253.637 454.808 257.045 454.808C259.445 454.856 260.933 456.152 261.605 457.88L263.477 450.92C264.245 448.04 264.389 445.304 264.245 444.296L264.197 444.152L270.293 443.288L261.989 474.344ZM251.141 476.168C253.781 476.168 257.237 472.376 259.349 466.28L260.789 460.904C260.837 458.84 260.117 457.16 258.245 457.112C255.413 457.064 252.053 460.664 250.181 465.896C247.973 471.848 248.261 476.168 251.141 476.168Z" fill="black"/>
<defs>
<filter id="filter0_d_2587_296" x="91" y="179" width="97.5" height="97.5" filterUnits="userSpaceOnUse" color-interpolation-filters="sRGB">
<feFlood flood-opacity="0" result="BackgroundImageFix"/>
<feColorMatrix in="SourceAlpha" type="matrix" values="0 0 0 0 0 0 0 0 0 0 0 0 0 0 0 0 0 0 127 0" result="hardAlpha"/>
<feOffset dy="2"/>
<feGaussianBlur stdDeviation="1"/>
<feComposite in2="hardAlpha" operator="out"/>
<feColorMatrix type="matrix" values="0 0 0 0 0 0 0 0 0 0 0 0 0 0 0 0 0 0 0.25 0"/>
<feBlend mode="normal" in2="BackgroundImageFix" result="effect1_dropShadow_2587_296"/>
<feBlend mode="normal" in="SourceGraphic" in2="effect1_dropShadow_2587_296" result="shape"/>
</filter>
<filter id="filter1_d_2587_296" x="213" y="185" width="97.5" height="97.5" filterUnits="userSpaceOnUse" color-interpolation-filters="sRGB">
<feFlood flood-opacity="0" result="BackgroundImageFix"/>
<feColorMatrix in="SourceAlpha" type="matrix" values="0 0 0 0 0 0 0 0 0 0 0 0 0 0 0 0 0 0 127 0" result="hardAlpha"/>
<feOffset dy="2"/>
<feGaussianBlur stdDeviation="1"/>
<feComposite in2="hardAlpha" operator="out"/>
<feColorMatrix type="matrix" values="0 0 0 0 0 0 0 0 0 0 0 0 0 0 0 0 0 0 0.25 0"/>
<feBlend mode="normal" in2="BackgroundImageFix" result="effect1_dropShadow_2587_296"/>
<feBlend mode="normal" in="SourceGraphic" in2="effect1_dropShadow_2587_296" result="shape"/>
</filter>
</defs>
</svg>
