<svg width="513" height="547" viewBox="0 0 513 547" fill="none" xmlns="http://www.w3.org/2000/svg">
<g filter="url(#filter0_d_2587_204)">
<path fill-rule="evenodd" clip-rule="evenodd" d="M219.625 71.1795C219.625 59.4824 230.631 50 244.208 50H268.792C282.369 50 293.375 59.4824 293.375 71.1795V180.012L256.5 256.5L219.625 180.861V71.1795Z" fill="url(#paint0_radial_2587_204)"/>
<path fill-rule="evenodd" clip-rule="evenodd" d="M219.625 441.82C219.625 453.518 230.631 463 244.208 463H268.792C282.369 463 293.375 453.518 293.375 441.82V332.988L256.5 256.5L219.625 332.139V441.82Z" fill="url(#paint1_radial_2587_204)"/>
<path fill-rule="evenodd" clip-rule="evenodd" d="M441.82 219.518C453.517 219.518 463 230.524 463 244.101V268.684C463 282.261 453.517 293.268 441.82 293.268H332.988L256.5 256.393L332.139 219.518H441.82Z" fill="url(#paint2_radial_2587_204)"/>
<path fill-rule="evenodd" clip-rule="evenodd" d="M71.1795 219.732C59.4824 219.732 50 230.738 50 244.315V268.899C50 282.476 59.4824 293.482 71.1795 293.482H180.012L256.5 256.607L180.861 219.732H71.1795Z" fill="url(#paint3_radial_2587_204)"/>
<path fill-rule="evenodd" clip-rule="evenodd" d="M98.9815 151.938C90.7104 143.667 91.788 129.179 101.388 119.579L118.771 102.196C128.372 92.5952 142.86 91.5176 151.131 99.7888L228.087 176.745L256.098 256.905L176.538 229.495L98.9815 151.938Z" fill="url(#paint4_radial_2587_204)"/>
<path fill-rule="evenodd" clip-rule="evenodd" d="M361.869 413.211C370.141 421.482 384.628 420.405 394.229 410.804L411.612 393.421C421.212 383.821 422.29 369.333 414.019 361.062L337.062 284.106L256.903 256.095L284.313 335.654L361.869 413.211Z" fill="url(#paint5_radial_2587_204)"/>
<path fill-rule="evenodd" clip-rule="evenodd" d="M414.019 151.938C422.29 143.667 421.212 129.179 411.612 119.579L394.229 102.196C384.628 92.5952 370.141 91.5177 361.87 99.7888L284.913 176.745L256.903 256.905L336.462 229.495L414.019 151.938Z" fill="url(#paint6_radial_2587_204)"/>
<path fill-rule="evenodd" clip-rule="evenodd" d="M151.131 413.211C142.86 421.482 128.372 420.405 118.772 410.804L101.389 393.421C91.7881 383.821 90.7105 369.333 98.9816 361.062L175.938 284.106L256.098 256.095L228.687 335.654L151.131 413.211Z" fill="url(#paint7_radial_2587_204)"/>
</g>
<path fill-rule="evenodd" clip-rule="evenodd" d="M361.551 406.757C369.66 414.866 382.807 414.866 390.916 406.757L405.598 392.075C413.707 383.966 413.707 370.819 405.598 362.71L330.151 287.263L255.103 256.262L285.515 330.722L361.551 406.757Z" fill="#FFFAF9"/>
<path fill-rule="evenodd" clip-rule="evenodd" d="M437.607 288.224C449.075 288.224 458.372 278.928 458.372 267.46V246.696C458.372 235.228 449.075 225.932 437.607 225.932H330.909L255.921 257.078L330.076 288.224H437.607Z" fill="#FFFAF9"/>
<path fill-rule="evenodd" clip-rule="evenodd" d="M74.2359 288.224C62.7681 288.224 53.4717 278.928 53.4717 267.46V246.696C53.4717 235.228 62.7681 225.932 74.2359 225.932H180.935L255.923 257.078L181.767 288.224H74.2359Z" fill="#FFFAF9"/>
<path fill-rule="evenodd" clip-rule="evenodd" d="M106.565 151.771C98.4564 143.662 98.4564 130.515 106.565 122.406L121.248 107.723C129.357 99.6144 142.504 99.6144 150.613 107.723L226.06 183.171L257.061 258.219L182.601 227.807L106.565 151.771Z" fill="#FFFAF9"/>
<path fill-rule="evenodd" clip-rule="evenodd" d="M150.614 406.757C142.505 414.866 129.358 414.866 121.249 406.757L106.566 392.075C98.4572 383.966 98.4572 370.819 106.566 362.71L182.013 287.263L257.062 256.262L226.65 330.722L150.614 406.757Z" fill="#FFFAF9"/>
<path fill-rule="evenodd" clip-rule="evenodd" d="M405.599 151.771C413.708 143.662 413.708 130.515 405.599 122.406L390.917 107.723C382.808 99.6144 369.661 99.6144 361.552 107.723L286.104 183.171L255.104 258.219L329.563 227.807L405.599 151.771Z" fill="#FFFAF9"/>
<path fill-rule="evenodd" clip-rule="evenodd" d="M224.777 438.765C224.777 450.233 234.073 459.529 245.541 459.529H266.305C277.773 459.529 287.069 450.233 287.069 438.765V332.066L255.923 257.078L224.777 331.234V438.765Z" fill="#FFFAF9"/>
<path fill-rule="evenodd" clip-rule="evenodd" d="M224.777 75.3916C224.777 63.9238 234.073 54.6274 245.541 54.6274H266.305C277.773 54.6274 287.069 63.9238 287.069 75.3916V182.09L255.923 257.078L224.777 182.923V75.3916Z" fill="#FFFAF9"/>
<g filter="url(#filter1_d_2587_204)">
<circle cx="189.75" cy="275.75" r="46.75" fill="#FFFAF9"/>
</g>
<g filter="url(#filter2_d_2587_204)">
<circle cx="311.75" cy="281.75" r="46.75" fill="#FFFAF9"/>
</g>
<circle cx="190" cy="276" r="31.5" fill="#282828"/>
<circle cx="306.5" cy="282" r="31.5" fill="#282828"/>
<path d="M185.792 529V528.856C187.184 527.32 189.344 524.056 191.504 520.552L204.56 499.336C205.808 497.32 205.712 495.208 205.568 494.584L205.616 494.44H211.472L213.968 521.848C214.256 524.824 214.592 527.032 215.264 528.856L215.216 529H207.488L207.536 528.856C208.064 527.656 209.168 524.728 208.88 521.8L208.496 517.144H195.776L193.856 520.408C191.696 523.912 191.504 527.464 191.456 528.808L191.408 529H185.792ZM196.976 515.32H208.304L206.864 499.144L196.976 515.32ZM227.29 529.576C224.218 529.576 221.002 528.664 218.457 527.08L220.186 521.752H220.378C221.626 524.536 224.122 527.704 227.482 527.8C229.306 527.848 231.082 527.08 231.802 525.208C232.762 522.52 230.41 520.552 227.482 518.584C224.554 516.568 221.242 514.024 222.538 510.088C223.594 506.632 226.906 504.904 231.322 504.808C234.154 504.712 236.89 505.48 239.146 506.536L237.61 511.672L237.466 511.72C236.266 508.792 233.77 506.392 230.698 506.488C228.826 506.536 227.194 507.352 226.714 509.032C225.946 511.48 228.634 513.112 231.273 514.936C235.258 517.768 237.13 520.456 236.026 523.912C234.874 527.656 231.514 529.528 227.29 529.576ZM245.088 529.384C241.824 529.384 240.576 526.264 241.68 522.328L245.808 506.92H242.496L242.88 505.48C247.152 504.136 250.176 501.256 252.48 498.088L253.056 498.04L251.136 505.096H257.472L256.992 506.92H250.656L246.624 521.896C245.712 525.16 246.528 525.832 247.488 525.832C248.976 525.784 251.424 524.152 253.872 520.024L254.256 520.36C252.24 525.16 248.832 529.384 245.088 529.384ZM264.417 513.304C266.961 508.072 271.089 503.176 275.745 505.384L273.825 510.664H273.681C272.913 509.8 271.953 509.368 270.945 509.416C267.921 509.512 264.513 514.168 262.497 520.696L260.385 529H255.489L260.049 512.056C260.817 509.176 260.817 506.296 260.865 505.24L260.913 505.096H266.529L264.417 513.304ZM295.384 510.616C294.472 514.504 289.24 518.152 279.928 517.528C278.968 522.616 280.648 526.072 284.392 526.072C287.032 526.072 291.064 524.44 293.944 519.64L294.424 520.024C291.736 525.88 286.744 529.384 282.28 529.384C276.952 529.384 273.015 524.392 275.416 516.184C277.48 508.936 283.288 504.808 288.712 504.808C292.888 504.808 296.2 507.016 295.384 510.616ZM288.52 506.44C284.92 506.44 281.704 511.432 280.408 515.704L280.216 516.328C287.224 516.136 290.152 513.4 290.92 510.664C291.592 508.36 290.584 506.44 288.52 506.44ZM322.21 520.408L322.594 520.744C320.578 525.544 317.314 529.384 314.194 529.384C311.89 529.384 310.642 527.608 311.602 524.152L314.53 513.592C315.634 509.56 314.386 508.072 312.61 508.072C309.01 508.072 304.642 514.216 302.386 521.464L300.466 529H295.57L300.178 512.104C300.898 509.224 300.994 506.248 300.85 505.24V505.096H306.61L304.45 513.496C306.946 509.128 310.498 504.808 315.01 504.808C318.322 504.808 321.106 507.112 319.57 512.824L316.354 524.44C315.634 527.08 319.234 525.016 322.21 520.408Z" fill="black"/>
<defs>
<filter id="filter0_d_2587_204" x="0.833336" y="0.833336" width="511.333" height="511.333" filterUnits="userSpaceOnUse" color-interpolation-filters="sRGB">
<feFlood flood-opacity="0" result="BackgroundImageFix"/>
<feColorMatrix in="SourceAlpha" type="matrix" values="0 0 0 0 0 0 0 0 0 0 0 0 0 0 0 0 0 0 127 0" result="hardAlpha"/>
<feOffset/>
<feGaussianBlur stdDeviation="24.5833"/>
<feComposite in2="hardAlpha" operator="out"/>
<feColorMatrix type="matrix" values="0 0 0 0 0 0 0 0 0 0 0 0 0 0 0 0 0 0 0.1 0"/>
<feBlend mode="normal" in2="BackgroundImageFix" result="effect1_dropShadow_2587_204"/>
<feBlend mode="normal" in="SourceGraphic" in2="effect1_dropShadow_2587_204" result="shape"/>
</filter>
<filter id="filter1_d_2587_204" x="141" y="229" width="97.5" height="97.5" filterUnits="userSpaceOnUse" color-interpolation-filters="sRGB">
<feFlood flood-opacity="0" result="BackgroundImageFix"/>
<feColorMatrix in="SourceAlpha" type="matrix" values="0 0 0 0 0 0 0 0 0 0 0 0 0 0 0 0 0 0 127 0" result="hardAlpha"/>
<feOffset dy="2"/>
<feGaussianBlur stdDeviation="1"/>
<feComposite in2="hardAlpha" operator="out"/>
<feColorMatrix type="matrix" values="0 0 0 0 0 0 0 0 0 0 0 0 0 0 0 0 0 0 0.25 0"/>
<feBlend mode="normal" in2="BackgroundImageFix" result="effect1_dropShadow_2587_204"/>
<feBlend mode="normal" in="SourceGraphic" in2="effect1_dropShadow_2587_204" result="shape"/>
</filter>
<filter id="filter2_d_2587_204" x="263" y="235" width="97.5" height="97.5" filterUnits="userSpaceOnUse" color-interpolation-filters="sRGB">
<feFlood flood-opacity="0" result="BackgroundImageFix"/>
<feColorMatrix in="SourceAlpha" type="matrix" values="0 0 0 0 0 0 0 0 0 0 0 0 0 0 0 0 0 0 127 0" result="hardAlpha"/>
<feOffset dy="2"/>
<feGaussianBlur stdDeviation="1"/>
<feComposite in2="hardAlpha" operator="out"/>
<feColorMatrix type="matrix" values="0 0 0 0 0 0 0 0 0 0 0 0 0 0 0 0 0 0 0.25 0"/>
<feBlend mode="normal" in2="BackgroundImageFix" result="effect1_dropShadow_2587_204"/>
<feBlend mode="normal" in="SourceGraphic" in2="effect1_dropShadow_2587_204" result="shape"/>
</filter>
<radialGradient id="paint0_radial_2587_204" cx="0" cy="0" r="1" gradientUnits="userSpaceOnUse" gradientTransform="translate(41.2238 167.101) rotate(38.6626) scale(389.039 505.151)">
<stop stop-color="#DF6431"/>
<stop offset="0.49" stop-color="#449E5B"/>
<stop offset="0.73" stop-color="#99BBD3"/>
<stop offset="1" stop-color="#EEBCBE"/>
</radialGradient>
<radialGradient id="paint1_radial_2587_204" cx="0" cy="0" r="1" gradientUnits="userSpaceOnUse" gradientTransform="translate(41.2238 167.101) rotate(38.6626) scale(389.039 505.151)">
<stop stop-color="#DF6431"/>
<stop offset="0.49" stop-color="#449E5B"/>
<stop offset="0.73" stop-color="#99BBD3"/>
<stop offset="1" stop-color="#EEBCBE"/>
</radialGradient>
<radialGradient id="paint2_radial_2587_204" cx="0" cy="0" r="1" gradientUnits="userSpaceOnUse" gradientTransform="translate(41.2238 167.101) rotate(38.6626) scale(389.039 505.151)">
<stop stop-color="#DF6431"/>
<stop offset="0.49" stop-color="#449E5B"/>
<stop offset="0.73" stop-color="#99BBD3"/>
<stop offset="1" stop-color="#EEBCBE"/>
</radialGradient>
<radialGradient id="paint3_radial_2587_204" cx="0" cy="0" r="1" gradientUnits="userSpaceOnUse" gradientTransform="translate(41.2238 167.101) rotate(38.6626) scale(389.039 505.151)">
<stop stop-color="#DF6431"/>
<stop offset="0.49" stop-color="#449E5B"/>
<stop offset="0.73" stop-color="#99BBD3"/>
<stop offset="1" stop-color="#EEBCBE"/>
</radialGradient>
<radialGradient id="paint4_radial_2587_204" cx="0" cy="0" r="1" gradientUnits="userSpaceOnUse" gradientTransform="translate(41.2238 167.101) rotate(38.6626) scale(389.039 505.151)">
<stop stop-color="#DF6431"/>
<stop offset="0.49" stop-color="#449E5B"/>
<stop offset="0.73" stop-color="#99BBD3"/>
<stop offset="1" stop-color="#EEBCBE"/>
</radialGradient>
<radialGradient id="paint5_radial_2587_204" cx="0" cy="0" r="1" gradientUnits="userSpaceOnUse" gradientTransform="translate(41.2238 167.101) rotate(38.6626) scale(389.039 505.151)">
<stop stop-color="#DF6431"/>
<stop offset="0.49" stop-color="#449E5B"/>
<stop offset="0.73" stop-color="#99BBD3"/>
<stop offset="1" stop-color="#EEBCBE"/>
</radialGradient>
<radialGradient id="paint6_radial_2587_204" cx="0" cy="0" r="1" gradientUnits="userSpaceOnUse" gradientTransform="translate(41.2238 167.101) rotate(38.6626) scale(389.039 505.151)">
<stop stop-color="#DF6431"/>
<stop offset="0.49" stop-color="#449E5B"/>
<stop offset="0.73" stop-color="#99BBD3"/>
<stop offset="1" stop-color="#EEBCBE"/>
</radialGradient>
<radialGradient id="paint7_radial_2587_204" cx="0" cy="0" r="1" gradientUnits="userSpaceOnUse" gradientTransform="translate(41.2238 167.101) rotate(38.6626) scale(389.039 505.151)">
<stop stop-color="#DF6431"/>
<stop offset="0.49" stop-color="#449E5B"/>
<stop offset="0.73" stop-color="#99BBD3"/>
<stop offset="1" stop-color="#EEBCBE"/>
</radialGradient>
</defs>
</svg>
