<svg width="413" height="497" viewBox="0 0 413 497" fill="none" xmlns="http://www.w3.org/2000/svg">
<path fill-rule="evenodd" clip-rule="evenodd" d="M313.833 358.804C322.08 367.051 335.45 367.051 343.696 358.804L358.627 343.873C366.874 335.627 366.874 322.257 358.627 314.01L281.901 237.284L205.581 205.758L236.509 281.48L313.833 358.804Z" fill="#A49E9B"/>
<path fill-rule="evenodd" clip-rule="evenodd" d="M391.178 238.262C402.84 238.262 412.294 228.808 412.294 217.146V196.03C412.294 184.368 402.84 174.914 391.178 174.914H282.671L206.412 206.588L281.824 238.262H391.178Z" fill="#A49E9B"/>
<path fill-rule="evenodd" clip-rule="evenodd" d="M21.6454 238.262C9.98329 238.262 0.529297 228.808 0.529297 217.146L0.529297 196.03C0.529297 184.368 9.98329 174.914 21.6454 174.914H130.153L206.412 206.588L130.999 238.262H21.6454Z" fill="#A49E9B"/>
<path fill-rule="evenodd" clip-rule="evenodd" d="M54.5246 99.4961C46.2782 91.2497 46.2782 77.8798 54.5246 69.6334L69.456 54.702C77.7024 46.4556 91.0723 46.4556 99.3187 54.702L176.045 131.428L207.571 207.749L131.849 176.821L54.5246 99.4961Z" fill="#A49E9B"/>
<path fill-rule="evenodd" clip-rule="evenodd" d="M99.3191 358.804C91.0727 367.051 77.7027 367.051 69.4563 358.804L54.525 343.873C46.2786 335.627 46.2786 322.257 54.525 314.01L131.251 237.284L207.571 205.758L176.644 281.48L99.3191 358.804Z" fill="#A49E9B"/>
<path fill-rule="evenodd" clip-rule="evenodd" d="M358.627 99.4961C366.874 91.2497 366.874 77.8798 358.627 69.6334L343.696 54.702C335.449 46.4556 322.08 46.4556 313.833 54.702L237.107 131.428L205.581 207.749L281.303 176.821L358.627 99.4961Z" fill="#A49E9B"/>
<path fill-rule="evenodd" clip-rule="evenodd" d="M174.737 391.354C174.737 403.017 184.191 412.471 195.853 412.471H216.97C228.632 412.471 238.086 403.017 238.086 391.354V282.847L206.412 206.588L174.737 282.001V391.354Z" fill="#A49E9B"/>
<path fill-rule="evenodd" clip-rule="evenodd" d="M174.737 21.822C174.737 10.1599 184.191 0.705887 195.853 0.705887H216.97C228.632 0.705887 238.086 10.1599 238.086 21.822V130.329L206.412 206.588L174.737 131.176V21.822Z" fill="#A49E9B"/>
<g filter="url(#filter0_d_2587_220)">
<circle cx="139.75" cy="225.75" r="46.75" fill="#FFFAF9"/>
</g>
<g filter="url(#filter1_d_2587_220)">
<circle cx="261.75" cy="231.75" r="46.75" fill="#FFFAF9"/>
</g>
<circle cx="140" cy="226" r="31.5" fill="#282828"/>
<circle cx="261.5" cy="231.5" r="31.5" fill="#282828"/>
<path d="M149.292 479V478.856C150.684 477.32 152.844 474.056 155.004 470.552L168.06 449.336C169.308 447.32 169.212 445.208 169.068 444.584L169.116 444.44H174.972L177.468 471.848C177.756 474.824 178.092 477.032 178.764 478.856L178.716 479H170.988L171.036 478.856C171.564 477.656 172.668 474.728 172.38 471.8L171.996 467.144H159.276L157.356 470.408C155.196 473.912 155.004 477.464 154.956 478.808L154.908 479H149.292ZM160.476 465.32H171.804L170.364 449.144L160.476 465.32ZM190.79 479.576C187.718 479.576 184.502 478.664 181.957 477.08L183.686 471.752H183.878C185.126 474.536 187.622 477.704 190.982 477.8C192.806 477.848 194.582 477.08 195.302 475.208C196.262 472.52 193.91 470.552 190.982 468.584C188.054 466.568 184.742 464.024 186.038 460.088C187.094 456.632 190.406 454.904 194.822 454.808C197.654 454.712 200.39 455.48 202.646 456.536L201.11 461.672L200.966 461.72C199.766 458.792 197.27 456.392 194.198 456.488C192.326 456.536 190.694 457.352 190.214 459.032C189.446 461.48 192.134 463.112 194.773 464.936C198.758 467.768 200.63 470.456 199.526 473.912C198.374 477.656 195.014 479.528 190.79 479.576ZM208.588 479.384C205.324 479.384 204.076 476.264 205.18 472.328L209.308 456.92H205.996L206.38 455.48C210.652 454.136 213.676 451.256 215.98 448.088L216.556 448.04L214.636 455.096H220.972L220.492 456.92H214.156L210.124 471.896C209.212 475.16 210.028 475.832 210.988 475.832C212.476 475.784 214.924 474.152 217.372 470.024L217.756 470.36C215.74 475.16 212.332 479.384 208.588 479.384ZM227.917 463.304C230.461 458.072 234.589 453.176 239.245 455.384L237.325 460.664H237.181C236.413 459.8 235.453 459.368 234.445 459.416C231.421 459.512 228.013 464.168 225.997 470.696L223.885 479H218.989L223.549 462.056C224.317 459.176 224.317 456.296 224.365 455.24L224.413 455.096H230.029L227.917 463.304ZM245.924 479.576C240.355 479.48 236.611 474.68 238.724 466.808C240.788 459.08 246.596 454.712 252.26 454.808C257.828 454.904 261.476 459.512 259.412 467.192C257.3 475.064 251.54 479.672 245.924 479.576ZM246.404 477.896C249.859 477.944 252.644 472.664 254.18 467.096C255.716 461.72 255.14 456.536 251.684 456.488C248.18 456.392 245.444 461.528 243.956 466.904C242.42 472.376 242.852 477.8 246.404 477.896Z" fill="black"/>
<defs>
<filter id="filter0_d_2587_220" x="91" y="179" width="97.5" height="97.5" filterUnits="userSpaceOnUse" color-interpolation-filters="sRGB">
<feFlood flood-opacity="0" result="BackgroundImageFix"/>
<feColorMatrix in="SourceAlpha" type="matrix" values="0 0 0 0 0 0 0 0 0 0 0 0 0 0 0 0 0 0 127 0" result="hardAlpha"/>
<feOffset dy="2"/>
<feGaussianBlur stdDeviation="1"/>
<feComposite in2="hardAlpha" operator="out"/>
<feColorMatrix type="matrix" values="0 0 0 0 0 0 0 0 0 0 0 0 0 0 0 0 0 0 0.25 0"/>
<feBlend mode="normal" in2="BackgroundImageFix" result="effect1_dropShadow_2587_220"/>
<feBlend mode="normal" in="SourceGraphic" in2="effect1_dropShadow_2587_220" result="shape"/>
</filter>
<filter id="filter1_d_2587_220" x="213" y="185" width="97.5" height="97.5" filterUnits="userSpaceOnUse" color-interpolation-filters="sRGB">
<feFlood flood-opacity="0" result="BackgroundImageFix"/>
<feColorMatrix in="SourceAlpha" type="matrix" values="0 0 0 0 0 0 0 0 0 0 0 0 0 0 0 0 0 0 127 0" result="hardAlpha"/>
<feOffset dy="2"/>
<feGaussianBlur stdDeviation="1"/>
<feComposite in2="hardAlpha" operator="out"/>
<feColorMatrix type="matrix" values="0 0 0 0 0 0 0 0 0 0 0 0 0 0 0 0 0 0 0.25 0"/>
<feBlend mode="normal" in2="BackgroundImageFix" result="effect1_dropShadow_2587_220"/>
<feBlend mode="normal" in="SourceGraphic" in2="effect1_dropShadow_2587_220" result="shape"/>
</filter>
</defs>
</svg>
