<svg width="413" height="497" viewBox="0 0 413 497" fill="none" xmlns="http://www.w3.org/2000/svg">
<path fill-rule="evenodd" clip-rule="evenodd" d="M313.833 358.804C322.079 367.051 335.449 367.051 343.696 358.804L358.627 343.873C366.873 335.627 366.873 322.257 358.627 314.01L281.901 237.284L205.58 205.758L236.508 281.48L313.833 358.804Z" fill="#99BBD3"/>
<path fill-rule="evenodd" clip-rule="evenodd" d="M391.178 238.262C402.84 238.262 412.294 228.808 412.294 217.146V196.03C412.294 184.368 402.84 174.914 391.178 174.914H282.671L206.412 206.588L281.824 238.262H391.178Z" fill="#EEBCBE"/>
<path fill-rule="evenodd" clip-rule="evenodd" d="M21.6454 238.262C9.98329 238.262 0.529297 228.808 0.529297 217.146L0.529297 196.03C0.529297 184.368 9.98329 174.914 21.6454 174.914H130.153L206.412 206.588L130.999 238.262H21.6454Z" fill="#EEBCBE"/>
<path fill-rule="evenodd" clip-rule="evenodd" d="M54.5246 99.4961C46.2782 91.2497 46.2782 77.8798 54.5246 69.6334L69.456 54.702C77.7024 46.4556 91.0723 46.4556 99.3187 54.702L176.045 131.428L207.571 207.749L131.849 176.821L54.5246 99.4961Z" fill="#99BBD3"/>
<path fill-rule="evenodd" clip-rule="evenodd" d="M99.3191 358.804C91.0727 367.051 77.7027 367.051 69.4563 358.804L54.525 343.873C46.2786 335.627 46.2786 322.257 54.525 314.01L131.251 237.284L207.571 205.758L176.644 281.48L99.3191 358.804Z" fill="#449E5B"/>
<path fill-rule="evenodd" clip-rule="evenodd" d="M358.627 99.4961C366.874 91.2497 366.874 77.8798 358.627 69.6334L343.696 54.702C335.449 46.4556 322.08 46.4556 313.833 54.702L237.107 131.428L205.581 207.749L281.303 176.821L358.627 99.4961Z" fill="#449E5B"/>
<path fill-rule="evenodd" clip-rule="evenodd" d="M174.737 391.354C174.737 403.017 184.191 412.471 195.853 412.471H216.97C228.632 412.471 238.086 403.017 238.086 391.354V282.847L206.412 206.588L174.737 282.001V391.354Z" fill="#DF6431"/>
<path fill-rule="evenodd" clip-rule="evenodd" d="M174.737 21.822C174.737 10.1599 184.191 0.705887 195.853 0.705887H216.97C228.632 0.705887 238.086 10.1599 238.086 21.822V130.329L206.412 206.588L174.737 131.176V21.822Z" fill="#DF6431"/>
<g filter="url(#filter0_d_2587_187)">
<circle cx="135.75" cy="211.75" r="46.75" fill="#FFFAF9"/>
</g>
<circle cx="139.5" cy="211.5" r="31.5" fill="#282828"/>
<g filter="url(#filter1_d_2587_187)">
<circle cx="276.75" cy="211.75" r="46.75" fill="#FFFAF9"/>
</g>
<circle cx="269.5" cy="211.5" r="31.5" fill="#282828"/>
<path d="M121.792 479V478.856C123.184 477.32 125.344 474.056 127.504 470.552L140.56 449.336C141.808 447.32 141.712 445.208 141.568 444.584L141.616 444.44H147.472L149.968 471.848C150.256 474.824 150.592 477.032 151.264 478.856L151.216 479H143.488L143.536 478.856C144.064 477.656 145.168 474.728 144.88 471.8L144.496 467.144H131.776L129.856 470.408C127.696 473.912 127.504 477.464 127.456 478.808L127.408 479H121.792ZM132.976 465.32H144.304L142.864 449.144L132.976 465.32ZM163.29 479.576C160.218 479.576 157.002 478.664 154.457 477.08L156.186 471.752H156.378C157.626 474.536 160.122 477.704 163.482 477.8C165.306 477.848 167.082 477.08 167.802 475.208C168.762 472.52 166.41 470.552 163.482 468.584C160.554 466.568 157.242 464.024 158.538 460.088C159.594 456.632 162.906 454.904 167.322 454.808C170.154 454.712 172.89 455.48 175.146 456.536L173.61 461.672L173.466 461.72C172.266 458.792 169.77 456.392 166.698 456.488C164.826 456.536 163.194 457.352 162.714 459.032C161.946 461.48 164.634 463.112 167.273 464.936C171.258 467.768 173.13 470.456 172.026 473.912C170.874 477.656 167.514 479.528 163.29 479.576ZM181.088 479.384C177.824 479.384 176.576 476.264 177.68 472.328L181.808 456.92H178.496L178.88 455.48C183.152 454.136 186.176 451.256 188.48 448.088L189.056 448.04L187.136 455.096H193.472L192.992 456.92H186.656L182.624 471.896C181.712 475.16 182.528 475.832 183.488 475.832C184.976 475.784 187.424 474.152 189.872 470.024L190.256 470.36C188.24 475.16 184.832 479.384 181.088 479.384ZM200.417 463.304C202.961 458.072 207.089 453.176 211.745 455.384L209.825 460.664H209.681C208.913 459.8 207.953 459.368 206.945 459.416C203.921 459.512 200.513 464.168 198.497 470.696L196.385 479H191.489L196.049 462.056C196.817 459.176 196.817 456.296 196.865 455.24L196.913 455.096H202.529L200.417 463.304ZM224.87 479.432C216.758 479.288 212.15 472.136 214.742 461.336C217.334 450.584 225.542 443.768 233.654 443.96C241.718 444.104 246.422 451.16 243.83 461.864C241.286 472.664 232.982 479.576 224.87 479.432ZM225.35 477.56C230.87 477.656 236.054 470.168 238.118 461.72C240.086 453.416 238.742 445.928 233.174 445.832C227.654 445.688 222.47 453.176 220.502 461.48C218.486 469.88 219.782 477.464 225.35 477.56ZM251.119 479.384C247.855 479.384 246.607 476.264 247.711 472.328L251.839 456.92H248.527L248.911 455.48C253.183 454.136 256.207 451.256 258.511 448.088L259.087 448.04L257.167 455.096H263.503L263.023 456.92H256.687L252.655 471.896C251.743 475.16 252.559 475.832 253.519 475.832C255.007 475.784 257.455 474.152 259.903 470.024L260.287 470.36C258.271 475.16 254.863 479.384 251.119 479.384ZM286.861 470.408L287.197 470.744C285.229 475.544 281.917 479.384 278.749 479.384C276.493 479.384 275.341 477.656 276.253 474.152L276.685 472.616C273.661 477.32 270.253 479.384 267.613 479.384C263.245 479.384 260.989 474.248 264.013 466.04C267.181 457.4 272.605 454.808 276.205 454.808C278.749 454.808 280.525 456.056 281.101 457.928C282.733 457.064 284.365 456.056 285.373 455.096H286.237L281.005 474.344C280.237 477.224 283.885 475.016 286.861 470.408ZM270.157 476.168C272.893 476.168 276.493 472.136 278.557 465.656L280.093 460.136C280.093 458.552 279.373 456.872 277.405 456.776C274.429 456.728 271.069 460.664 269.197 465.896C266.989 471.848 267.277 476.168 270.157 476.168Z" fill="black"/>
<defs>
<filter id="filter0_d_2587_187" x="87" y="165" width="97.5" height="97.5" filterUnits="userSpaceOnUse" color-interpolation-filters="sRGB">
<feFlood flood-opacity="0" result="BackgroundImageFix"/>
<feColorMatrix in="SourceAlpha" type="matrix" values="0 0 0 0 0 0 0 0 0 0 0 0 0 0 0 0 0 0 127 0" result="hardAlpha"/>
<feOffset dy="2"/>
<feGaussianBlur stdDeviation="1"/>
<feComposite in2="hardAlpha" operator="out"/>
<feColorMatrix type="matrix" values="0 0 0 0 0 0 0 0 0 0 0 0 0 0 0 0 0 0 0.25 0"/>
<feBlend mode="normal" in2="BackgroundImageFix" result="effect1_dropShadow_2587_187"/>
<feBlend mode="normal" in="SourceGraphic" in2="effect1_dropShadow_2587_187" result="shape"/>
</filter>
<filter id="filter1_d_2587_187" x="228" y="165" width="97.5" height="97.5" filterUnits="userSpaceOnUse" color-interpolation-filters="sRGB">
<feFlood flood-opacity="0" result="BackgroundImageFix"/>
<feColorMatrix in="SourceAlpha" type="matrix" values="0 0 0 0 0 0 0 0 0 0 0 0 0 0 0 0 0 0 127 0" result="hardAlpha"/>
<feOffset dy="2"/>
<feGaussianBlur stdDeviation="1"/>
<feComposite in2="hardAlpha" operator="out"/>
<feColorMatrix type="matrix" values="0 0 0 0 0 0 0 0 0 0 0 0 0 0 0 0 0 0 0.25 0"/>
<feBlend mode="normal" in2="BackgroundImageFix" result="effect1_dropShadow_2587_187"/>
<feBlend mode="normal" in="SourceGraphic" in2="effect1_dropShadow_2587_187" result="shape"/>
</filter>
</defs>
</svg>
