<svg width="434" height="508" viewBox="0 0 434 508" fill="none" xmlns="http://www.w3.org/2000/svg">
<path d="M64.3428 105.188C86.2777 105.188 105.355 127.12 120.288 141.292C129.97 150.479 137.154 159.479 144.668 170.6C150.744 179.595 158.191 188.403 163.473 197.85C167.876 205.725 177.466 212.929 184.091 218.853C194.085 227.79 203.639 237.664 213.105 247.338C223.944 258.415 234.698 269.701 245.678 280.628C254.023 288.932 264.367 295.927 271.603 305.338C280.762 317.252 290.901 328.08 301.288 338.696M78.8494 347.345C82.008 346.464 84.717 342.621 86.8416 340.343C92.339 334.451 97.6003 328.321 103.027 322.36C115.705 308.435 129.581 295.495 144.197 283.717C167.671 264.801 191.662 247.321 216.597 230.659C234.669 218.583 253.744 203.59 267.371 186.181C276.359 174.7 286.46 162.633 296.452 152.136C302.919 145.343 308.974 138.642 315.795 132.369C326.147 122.846 338.341 115.936 344.808 102.717M209.411 36C213.262 39.4984 221.244 40.3101 221.5 47.394C221.803 55.7447 216.906 62.7092 210.62 67.8483C206.699 71.0544 197.65 75.689 197.322 81.7133C196.985 87.9266 196.113 94.0423 196.113 100.52C196.113 115.171 203.367 128.854 203.367 143.214C203.367 158.67 205.23 175.476 201.553 190.505C199.209 200.09 199.74 210.256 199.74 220.089C199.74 232.106 203.926 241.915 210.083 252.212C218.655 266.547 217.114 289.084 214.247 305.201C211.484 320.732 208.202 334.038 208.202 349.884C208.202 358.911 209.736 369.422 207.598 378.163C206.099 384.292 205.944 392.684 209.411 398M45 228.737C112.695 228.737 180.358 229.973 248.029 229.973C258.226 229.973 267.886 228.987 277.378 232.718C285.743 236.006 293.225 241.206 302.497 242.259C312.22 243.363 321.648 243.563 331.51 243.563C341.586 243.563 350.694 238.908 360.524 238.621C367.982 238.403 375 237.417 380.471 231.826C383.597 228.631 383.166 227.502 388.06 227.502C391.641 227.502 394.508 228.737 398 228.737" stroke="#F4D326" stroke-width="71.478" stroke-linecap="round"/>
<g filter="url(#filter0_d_2587_311)">
<circle cx="139.75" cy="236.75" r="46.75" fill="#FFFAF9"/>
</g>
<circle cx="129.5" cy="237.5" r="31.5" fill="#282828"/>
<g filter="url(#filter1_d_2587_311)">
<circle cx="261.75" cy="242.75" r="46.75" fill="#FFFAF9"/>
</g>
<circle cx="270.5" cy="243.5" r="31.5" fill="#282828"/>
<path d="M158.883 490L158.931 489.856C159.411 488.8 160.947 485.92 161.715 483.04L167.283 462.4C168.051 459.52 168.051 456.64 168.099 455.584L168.147 455.44H181.587C188.019 455.44 190.995 459.568 189.507 465.136C188.211 469.888 183.699 473.008 178.419 473.584C180.675 474.256 182.211 475.744 182.739 478.432C183.795 484.336 184.275 487.024 186.243 489.808L186.195 490H180.339C179.187 487.888 178.563 484.288 178.035 480.832C177.459 476.992 176.211 474.928 173.715 474.064L169.347 474.16L166.947 483.04C166.179 485.92 166.179 488.8 166.131 489.856L166.083 490H158.883ZM169.827 472.336H175.251C179.283 472.336 182.643 469.936 183.987 464.992C185.187 460.336 183.651 457.072 179.619 457.072H173.907L169.827 472.336ZM193.536 490.144C191.184 490.144 189.984 488.32 191.04 484.432L194.208 472.96C194.976 470.08 194.928 467.68 194.832 466.24L194.88 466.096H200.832L195.84 484.48C194.688 488.752 198.528 485.824 201.504 481.216L201.84 481.552C199.872 486.304 196.656 490.144 193.536 490.144ZM212.262 490.384C206.934 490.384 203.19 485.392 205.302 477.376C207.318 469.936 213.03 465.808 218.214 465.808C220.71 465.808 223.014 466.672 224.886 467.968L223.302 473.536H223.11C222.294 470.992 220.758 467.44 218.214 467.488C214.902 467.536 211.59 472.432 210.342 477.136C208.854 482.752 210.198 487.024 214.374 487.024C216.966 487.024 220.854 485.296 223.542 480.64L223.974 481.024C221.286 486.88 216.726 490.384 212.262 490.384ZM224.257 490L224.305 489.856C224.785 488.8 226.369 485.92 227.089 483.04L232.753 461.92C233.521 459.04 233.425 456.304 233.425 455.296V455.152L239.617 454.288L231.937 483.04C231.169 485.92 231.121 488.8 231.073 489.856L231.025 490H224.257ZM242.449 490.384C239.857 490.384 238.993 487.552 237.313 483.808L234.337 477.136V477.088L240.625 472.384C243.841 470.032 244.465 467.632 244.273 466.288L244.369 466.096H251.425L251.377 466.288L238.849 475.792L242.497 484.288C243.313 486.064 243.793 486.688 244.513 486.736C245.809 486.832 247.393 484.864 249.601 481.744L249.985 482.032C248.209 486.544 245.377 490.384 242.449 490.384Z" fill="black"/>
<defs>
<filter id="filter0_d_2587_311" x="91" y="190" width="97.5" height="97.5" filterUnits="userSpaceOnUse" color-interpolation-filters="sRGB">
<feFlood flood-opacity="0" result="BackgroundImageFix"/>
<feColorMatrix in="SourceAlpha" type="matrix" values="0 0 0 0 0 0 0 0 0 0 0 0 0 0 0 0 0 0 127 0" result="hardAlpha"/>
<feOffset dy="2"/>
<feGaussianBlur stdDeviation="1"/>
<feComposite in2="hardAlpha" operator="out"/>
<feColorMatrix type="matrix" values="0 0 0 0 0 0 0 0 0 0 0 0 0 0 0 0 0 0 0.25 0"/>
<feBlend mode="normal" in2="BackgroundImageFix" result="effect1_dropShadow_2587_311"/>
<feBlend mode="normal" in="SourceGraphic" in2="effect1_dropShadow_2587_311" result="shape"/>
</filter>
<filter id="filter1_d_2587_311" x="213" y="196" width="97.5" height="97.5" filterUnits="userSpaceOnUse" color-interpolation-filters="sRGB">
<feFlood flood-opacity="0" result="BackgroundImageFix"/>
<feColorMatrix in="SourceAlpha" type="matrix" values="0 0 0 0 0 0 0 0 0 0 0 0 0 0 0 0 0 0 127 0" result="hardAlpha"/>
<feOffset dy="2"/>
<feGaussianBlur stdDeviation="1"/>
<feComposite in2="hardAlpha" operator="out"/>
<feColorMatrix type="matrix" values="0 0 0 0 0 0 0 0 0 0 0 0 0 0 0 0 0 0 0.25 0"/>
<feBlend mode="normal" in2="BackgroundImageFix" result="effect1_dropShadow_2587_311"/>
<feBlend mode="normal" in="SourceGraphic" in2="effect1_dropShadow_2587_311" result="shape"/>
</filter>
</defs>
</svg>
